<svg width="298" height="342" viewBox="0 0 298 342" fill="none" xmlns="http://www.w3.org/2000/svg">
<g clip-path="url(#clip0_2102_270)">
<path d="M0 0H298V342H0V0Z" fill="white"/>
<path d="M145.918 53.1065C151.719 52.7007 157.727 52.927 163.492 53.59C189.182 56.544 213.633 70.546 229.646 90.7635C244.921 110.048 253.553 136.296 250.675 160.934C245.751 203.11 205.764 256.752 178.872 288.642C173.937 294.495 169.005 300.26 163.769 305.85C161.309 308.475 158.907 311.212 156.077 313.447C154.799 314.202 153.387 314.857 151.886 314.95C149.351 315.107 147.298 313.827 145.466 312.202C143.112 310.115 141.037 307.565 138.911 305.245C133.529 299.372 128.385 293.42 123.267 287.317C96.2778 255.127 54.7538 199.378 51.9963 156.694C50.3948 131.903 60.034 105.787 76.403 87.2457C94.0235 66.959 119.091 54.6482 145.918 53.1065Z" fill="#1E3F72"/>
<path d="M148.265 66.8593L149.02 66.8343C172.577 66.1383 194.135 74.7447 211.212 90.9062C227.288 106.12 236.661 128.343 237.222 150.377C238.283 192.064 190.353 254.49 163.861 284.88C160.343 288.915 156.942 293.065 153.25 296.943L151.437 298.965C149.441 296.215 145.502 292.162 143.112 289.425C138.127 283.607 133.186 277.75 128.288 271.855C104.803 243.059 67.7323 192.442 65.9193 154.568C64.88 132.856 73.4518 110.862 88.0425 94.8925C103.808 77.6373 124.98 67.9395 148.265 66.8593Z" fill="white"/>
<path d="M177.349 133.025C181.476 133.215 186.718 133.076 190.944 133.108L190.942 134.39C190.82 158.509 186.476 164.068 169.425 180.515L149.219 200.397C135.292 214.253 137.453 223.337 137.389 241.366L137.349 272.685L137.093 272.853C136.138 272.398 124.47 258.34 124.185 256.845C123.108 251.18 123.753 243.174 123.703 237.186C123.645 230.208 123.275 221.716 124.961 215.008C126.332 209.663 128.621 204.597 131.725 200.036C134.914 195.405 140.262 190.328 144.355 186.242L163.176 167.619C176.512 154.324 177.077 151.801 177.349 133.025Z" fill="#F9BC1A"/>
<path d="M152.376 114.36C162.327 114.062 173.501 114.326 183.489 114.368L221.79 114.33C224.276 119.157 226.013 122.83 227.556 128.036L177.188 128.053C170.839 128.085 164.489 128.073 158.14 128.018C143.121 127.963 135.041 129.838 123.879 140.919C122.569 138.967 116.379 133.001 114.346 130.981C116.441 129.301 118.292 127.273 120.655 125.511C130.83 117.919 139.918 114.904 152.376 114.36Z" fill="#12904F"/>
<path d="M79.4988 117.963C95.0878 119.511 100.816 124.498 111.505 135.165L124.824 148.694C133.028 156.953 141.88 165.422 149.85 173.822C147.758 176.206 144.892 178.851 142.584 181.082L140.181 183.435C137.753 180.48 130.626 173.789 127.611 170.728L99.131 142.004C91.4735 134.43 85.7385 131.211 74.7573 131.273C75.931 126.773 77.6565 122.228 79.4988 117.963Z" fill="#1E3F72"/>
<path d="M101.86 151.62C105.363 154.448 109.404 159.664 112.991 162.805C112.332 172.007 112.538 181.781 112.564 191.055C112.622 202.207 112.607 213.36 112.521 224.512C112.52 226.867 112.862 239.469 112.386 241.037C111.728 240.881 111.687 240.541 111.206 239.855C107.728 234.344 103.529 229.152 100.242 223.515C98.3915 220.34 98.9013 215.475 98.8973 211.796L98.888 197.004C98.876 186.258 98.5338 175.092 99.1623 164.386C99.3975 160.38 100.701 155.436 101.86 151.62Z" fill="#12904F"/>
<path d="M166.42 190.172C169.652 193.692 175.385 198.42 178.122 202.07C181.069 198.65 183.561 196.086 186.819 193.038C187.063 195.751 188.406 201.437 189.026 204.336C190.786 212.573 192.693 220.779 194.749 228.947L187.346 226.972C178.458 224.534 168.593 221.959 159.66 219.792C162.375 217.447 165.898 213.866 168.646 211.311C166.072 209.369 159.662 202.455 156.896 199.81C159.127 198.095 164.538 192.342 166.42 190.172Z" fill="#1E3F72"/>
<path d="M177.499 76.88C181.002 77.8718 187.545 81.0745 190.909 82.834C191.394 90.2548 191.067 101.703 191.089 109.494L177.274 109.423C177.179 101.764 177.426 94.0568 177.279 86.3883C177.219 83.2875 177.245 79.959 177.499 76.88Z" fill="#F9BC1A"/>
</g>
<defs>
<clipPath id="clip0_2102_270">
<rect width="298" height="342" fill="white"/>
</clipPath>
</defs>
</svg>
